<svg xmlns="http://www.w3.org/2000/svg" viewBox="0 0 16 16" width="16" height="16" preserveAspectRatio="xMidYMid meet" style="width: 100%; height: 100%; transform: translate3d(0px, 0px, 0px);"><defs><clipPath id="__lottie_element_10"><rect width="16" height="16" x="0" y="0"></rect></clipPath></defs><g clip-path="url(#__lottie_element_10)"><g transform="matrix(1,0,0,1,0,1.0000066757202148)" opacity="1" style="display: block;"><g opacity="1" transform="matrix(1,0,0,1,8,13)"><path fill="rgb(255,255,255)" fill-opacity="1" d=" M-8,1 C-8,1 8,1 8,1 C8,1 8,-1 8,-1 C8,-1 -8,-1 -8,-1 C-8,-1 -8,1 -8,1z"></path></g></g><g transform="matrix(1,0,0,1,0,1.0000066757202148)" opacity="1" style="display: block;"><g opacity="1" transform="matrix(1,0,0,1,8,7)"><path fill="rgb(255,255,255)" fill-opacity="1" d=" M-8,1.0010000467300415 C-8,1.0010000467300415 8,1.0010000467300415 8,1.0010000467300415 C8,1.0010000467300415 8,-1.0010000467300415 8,-1.0010000467300415 C8,-1.0010000467300415 -8,-1.0010000467300415 -8,-1.0010000467300415 C-8,-1.0010000467300415 -8,1.0010000467300415 -8,1.0010000467300415z"></path></g></g><g transform="matrix(1,0,0,1,0,1.0000057220458984)" opacity="1" style="display: block;"><g opacity="1" transform="matrix(1,0,0,1,8,1)"><path fill="rgb(255,255,255)" fill-opacity="1" d=" M-8.00100040435791,1.0010000467300415 C-8.00100040435791,1.0010000467300415 0.9990000128746033,1.0010000467300415 0.9990000128746033,1.0010000467300415 C0.9990000128746033,1.0010000467300415 0.9990000128746033,-1.0010000467300415 0.9990000128746033,-1.0010000467300415 C0.9990000128746033,-1.0010000467300415 -8.00100040435791,-1.0010000467300415 -8.00100040435791,-1.0010000467300415 C-8.00100040435791,-1.0010000467300415 -8.00100040435791,1.0010000467300415 -8.00100040435791,1.0010000467300415z M3.999000072479248,-0.9990000128746033 M3.999000072479248,1.0010000467300415 C3.999000072479248,1.0010000467300415 8.00100040435791,1.0010000467300415 8.00100040435791,1.0010000467300415 C8.00100040435791,1.0010000467300415 8.00100040435791,-1.0010000467300415 8.00100040435791,-1.0010000467300415 C8.00100040435791,-1.0010000467300415 3.999000072479248,-1.0010000467300415 3.999000072479248,-1.0010000467300415 C3.999000072479248,-1.0010000467300415 3.999000072479248,1.0010000467300415 3.999000072479248,1.0010000467300415z"></path></g></g><g style="display: none;"><g><path></path></g></g><g style="display: none;"><g><path></path></g></g><g style="display: none;"><g><path></path></g></g></g></svg>